<svg id="Layer_1" data-name="Layer 1" xmlns="http://www.w3.org/2000/svg" viewBox="0 0 112 32"><defs><style>.cls-1{fill:#fff;}</style></defs><title>zeta_logo_36</title><rect id="Rectangle_14_copy_16" data-name="Rectangle 14 copy 16" class="cls-1" x="65.97" y="6.21" width="7.82" height="4"/><rect id="Rectangle_14_copy_16-2" data-name="Rectangle 14 copy 16-2" class="cls-1" x="65.97" y="23.48" width="7.82" height="4"/><rect id="Rectangle_14_copy_16-3" data-name="Rectangle 14 copy 16-3" class="cls-1" x="65.99" y="14.85" width="5.22" height="4"/><rect id="Rectangle_14_copy_16-4" data-name="Rectangle 14 copy 16-4" class="cls-1" x="59.58" y="6.21" width="3.98" height="21.27"/><path id="Rectangle_14_copy_8" data-name="Rectangle 14 copy 8" class="cls-1" d="M40.35,10h10L47.5,14H40.35Z" transform="translate(-2.32 -3.44)"/><path id="Rectangle_14_copy_8-2" data-name="Rectangle 14 copy 8-2" class="cls-1" d="M56.55,13.51,48.29,24.24h-5.6L53.59,10h3Z" transform="translate(-2.32 -3.44)"/><rect id="Rectangle_14_copy_10" data-name="Rectangle 14 copy 10" class="cls-1" x="77.52" y="6.08" width="3.98" height="4"/><polygon class="cls-1" points="93.27 5.97 84.57 5.97 84.57 6 84.49 6 84.49 27.48 88.48 27.44 88.48 10.04 93.27 10.08 93.27 5.97"/><path id="Rectangle_14_copy_8-5" data-name="Rectangle 14 copy 8-5" class="cls-1" d="M101.61,14.22l2,6.49-3.47,10.22H95.75Z" transform="translate(-2.32 -3.44)"/><path id="Rectangle_14_copy_8-6" data-name="Rectangle 14 copy 8-6" class="cls-1" d="M108.23,9.42h-4.34L110,30.92h4.34Z" transform="translate(-2.32 -3.44)"/><rect id="Rectangle_14_copy_8-7" data-name="Rectangle 14 copy 8-7" class="cls-1" x="38.67" y="23.48" width="15.56" height="4"/><path id="Shape_12_copy_2" data-name="Shape 12 copy 2" class="cls-1" d="M2.32,24.85v4.78s2,5.82,13.14,5.82c11.56,0,13.14-5.61,13.14-5.61l-.21-4.36s-1.22,5.4-13.14,5.4C4.08,30.87,2.32,24.85,2.32,24.85Z" transform="translate(-2.32 -3.44)"/><path id="Shape_10_copy_3" data-name="Shape 10 copy 3" class="cls-1" d="M2.32,14.46v6.23A8.08,8.08,0,0,0,4.61,23.6,15.88,15.88,0,0,0,9,25.67l6.26-5a35,35,0,0,1-7.72-1.45A7.84,7.84,0,0,1,2.32,14.46Z" transform="translate(-2.32 -3.44)"/><ellipse id="Ellipse_1_copy" data-name="Ellipse 1 copy" class="cls-1" cx="13.32" cy="6.46" rx="12.74" ry="6.46"/><path id="Shape_11_copy_3" data-name="Shape 11 copy 3" class="cls-1" d="M15.67,26.51a16.55,16.55,0,0,0,9-1.86c3.81-2.09,4-3.75,4-3.75V15.5a8.46,8.46,0,0,1-1.88,2.08c-2.29,2-2.09,1.66-2.09,1.66Z" transform="translate(-2.32 -3.44)"/></svg>