<svg xmlns="http://www.w3.org/2000/svg" viewBox="0 0 26.1 31.8"><defs><style>.cls-1{fill:#fff;opacity:1;isolation:isolate;}</style></defs><title>Asset 1</title><g id="Layer_2" data-name="Layer 2"><g id="Layer_1-2" data-name="Layer 1"><g id="fff"><path id="Shape_12_copy_2" data-name="Shape 12 copy 2" class="cls-1" d="M0,21.3V26s2,5.8,13,5.8c11.5,0,13-5.6,13-5.6l-.1-4.3s-1.2,5.4-13,5.4C1.7,27.3,0,21.3,0,21.3Z"/><path id="Shape_11_copy_3" data-name="Shape 11 copy 3" class="cls-1" d="M13.2,22.9a17,17,0,0,0,8.9-1.8c3.8-2.1,4-3.7,4-3.7V12a7.56,7.56,0,0,1-1.9,2.1c-2.3,2-2.1,1.6-2.1,1.6Z"/><path id="Shape_10_copy_3" data-name="Shape 10 copy 3" class="cls-1" d="M0,11v6.2a8,8,0,0,0,2.3,2.9,16.25,16.25,0,0,0,4.4,2.1l6.2-5a40.14,40.14,0,0,1-7.7-1.4A8.27,8.27,0,0,1,0,11Z"/><ellipse id="Ellipse_1_copy" data-name="Ellipse 1 copy" class="cls-1" cx="13.2" cy="6.4" rx="12.6" ry="6.4"/></g></g></g></svg>