<svg xmlns="http://www.w3.org/2000/svg" viewBox="0 0 74 21.5"><defs><style>.cls-1,.cls-2{fill:#fff;}.cls-2{isolation:isolate;}</style></defs><title>Asset 2</title><g id="Layer_2" data-name="Layer 2"><g id="Layer_1-2" data-name="Layer 1"><g id="fff"><rect id="Rectangle_14_copy_16" data-name="Rectangle 14 copy 16" class="cls-1" x="28" y="0.2" width="7.8" height="4"/><rect id="Rectangle_14_copy_16-3" data-name="Rectangle 14 copy 16-3" class="cls-1" x="28" y="8.9" width="5.2" height="4"/><rect id="Rectangle_14_copy_16-4" data-name="Rectangle 14 copy 16-4" class="cls-1" x="21.6" y="0.2" width="4" height="21.3"/><path id="Rectangle_14_copy_8-2" data-name="Rectangle 14 copy 8-2" class="cls-1" d="M16.2,4.1,8,14.8H2.4L13.3.6h3Z"/><polygon id="Rectangle_14_copy_10" data-name="Rectangle 14 copy 10" class="cls-1" points="39.5 0.1 43.5 0.2 43.5 4.2 39.5 4.1 39.5 0.1"/><path id="Rectangle_14_copy_8" data-name="Rectangle 14 copy 8" class="cls-2" d="M0,.6H10l-2.8,4H0Z"/><path id="Rectangle_14_copy_8-5" data-name="Rectangle 14 copy 8-5" class="cls-2" d="M61.3,4.8l2,6.5L59.8,21.5H55.4Z"/><path id="Rectangle_14_copy_8-6" data-name="Rectangle 14 copy 8-6" class="cls-2" d="M67.9,0H63.6l6.1,21.5H74Z"/><polygon class="cls-2" points="55.3 0 46.6 0 46.6 0 46.5 0 46.5 21.5 50.5 21.4 50.5 4 55.3 4.1 55.3 0"/><rect id="Rectangle_14_copy_16-2" data-name="Rectangle 14 copy 16-2" class="cls-1" x="27.1" y="17.5" width="7.8" height="4"/><rect id="Rectangle_14_copy_16-3-2" data-name="Rectangle 14 copy 16-3-2" class="cls-1" y="17.5" width="16.2" height="4"/></g></g></g></svg>