<svg width="38" height="38" viewBox="0 0 38 38" fill="none" xmlns="http://www.w3.org/2000/svg">
<circle cx="19" cy="19" r="19" fill="#164D97"/>
<circle opacity="0.8" cx="22" cy="16" r="8" fill="url(#paint0_linear)"/>
<path d="M22 23C22 26.866 18.866 30 15 30C11.134 30 8 26.866 8 23C8 19.134 11.134 16 15 16C18.866 16 22 19.134 22 23ZM10.3297 23C10.3297 25.5793 12.4207 27.6703 15 27.6703C17.5793 27.6703 19.6703 25.5793 19.6703 23C19.6703 20.4207 17.5793 18.3297 15 18.3297C12.4207 18.3297 10.3297 20.4207 10.3297 23Z" fill="white"/>
<defs>
<linearGradient id="paint0_linear" x1="14" y1="8" x2="14" y2="40" gradientUnits="userSpaceOnUse">
<stop stop-color="#67D1EC"/>
<stop offset="1" stop-color="#468AE6"/>
</linearGradient>
</defs>
</svg>
