<svg width="38" height="38" viewBox="0 0 38 38" fill="none" xmlns="http://www.w3.org/2000/svg">
  <circle cx="19" cy="19" r="19" fill="#164D97" />
  <path d="M13 19C13 15.6863 15.6863 13 19 13H25V19C25 22.3137 22.3137 25 19 25C15.6863 25 13 22.3137 13 19Z"
    stroke="white" stroke-width="2" />
  <g opacity="0.8">
    <path d="M16 19C16 17.3431 17.3431 16 19 16H22V19C22 20.6569 20.6569 22 19 22C17.3431 22 16 20.6569 16 19Z"
      fill="white" />
    <path d="M16 19C16 17.3431 17.3431 16 19 16H22V19C22 20.6569 20.6569 22 19 22C17.3431 22 16 20.6569 16 19Z"
      fill="url(#paint0_linear)" />
  </g>
  <circle opacity="0.8" cx="12.5" cy="25.5" r="3.5" fill="url(#paint1_linear)" />
  <rect opacity="0.8" x="24" y="8" width="6" height="6" fill="url(#paint2_linear)" />
  <defs>
    <linearGradient id="paint0_linear" x1="16" y1="16" x2="16" y2="28" gradientUnits="userSpaceOnUse">
      <stop stop-color="#67D1EC" />
      <stop offset="1" stop-color="#468AE6" />
    </linearGradient>
    <linearGradient id="paint1_linear" x1="9" y1="22" x2="9" y2="36" gradientUnits="userSpaceOnUse">
      <stop stop-color="#67D1EC" />
      <stop offset="1" stop-color="#468AE6" />
    </linearGradient>
    <linearGradient id="paint2_linear" x1="24" y1="8" x2="24" y2="20" gradientUnits="userSpaceOnUse">
      <stop stop-color="#67D1EC" />
      <stop offset="1" stop-color="#468AE6" />
    </linearGradient>
  </defs>
</svg>