<svg width="38" height="38" viewBox="0 0 38 38" fill="none" xmlns="http://www.w3.org/2000/svg">
<circle cx="19" cy="19" r="19" fill="#164D97"/>
<path d="M22 27C22 25.9494 21.806 24.9091 21.4291 23.9385C21.0522 22.9679 20.4997 22.086 19.8033 21.3431C19.1069 20.6003 18.2801 20.011 17.3701 19.609C16.4602 19.2069 15.4849 19 14.5 19C13.5151 19 12.5398 19.2069 11.6299 19.609C10.7199 20.011 9.89314 20.6003 9.1967 21.3431C8.50026 22.086 7.94781 22.9679 7.5709 23.9385C7.19399 24.9091 7 25.9494 7 27H9.28043C9.28043 26.2689 9.41544 25.5449 9.67775 24.8694C9.94005 24.1939 10.3245 23.5801 10.8092 23.0632C11.2939 22.5462 11.8693 22.1361 12.5026 21.8563C13.1358 21.5765 13.8146 21.4325 14.5 21.4325C15.1854 21.4325 15.8642 21.5765 16.4974 21.8563C17.1307 22.1361 17.7061 22.5462 18.1908 23.0632C18.6755 23.5801 19.0599 24.1939 19.3223 24.8694C19.5846 25.5449 19.7196 26.2689 19.7196 27H22Z" fill="white"/>
<path opacity="0.8" d="M31 27C31 25.9494 30.806 24.9091 30.4291 23.9385C30.0522 22.9679 29.4997 22.086 28.8033 21.3431C28.1069 20.6003 27.2801 20.011 26.3701 19.609C25.4602 19.2069 24.4849 19 23.5 19C22.5151 19 21.5398 19.2069 20.6299 19.609C19.7199 20.011 18.8931 20.6003 18.1967 21.3431C17.5003 22.086 16.9478 22.9679 16.5709 23.9385C16.194 24.9091 16 25.9494 16 27H18.2804C18.2804 26.2689 18.4154 25.5449 18.6777 24.8694C18.9401 24.1939 19.3245 23.5801 19.8092 23.0632C20.2939 22.5462 20.8693 22.1361 21.5026 21.8563C22.1358 21.5765 22.8146 21.4325 23.5 21.4325C24.1854 21.4325 24.8642 21.5765 25.4974 21.8563C26.1307 22.1361 26.7061 22.5462 27.1908 23.0632C27.6755 23.5801 28.0599 24.1939 28.3223 24.8694C28.5846 25.5449 28.7196 26.2689 28.7196 27H31Z" fill="url(#paint0_linear)"/>
<circle cx="14.5" cy="13.5" r="3.5" fill="white"/>
<circle opacity="0.8" cx="23.5" cy="13.5" r="3.5" fill="url(#paint1_linear)"/>
<defs>
<linearGradient id="paint0_linear" x1="16" y1="19" x2="16" y2="51" gradientUnits="userSpaceOnUse">
<stop stop-color="#67D1EC"/>
<stop offset="1" stop-color="#468AE6"/>
</linearGradient>
<linearGradient id="paint1_linear" x1="20" y1="10" x2="20" y2="24" gradientUnits="userSpaceOnUse">
<stop stop-color="#67D1EC"/>
<stop offset="1" stop-color="#468AE6"/>
</linearGradient>
</defs>
</svg>
