<svg xmlns="http://www.w3.org/2000/svg" width="38" height="38" fill="none" viewBox="0 0 38 38"><circle cx="19" cy="19" r="19" fill="#164D97"/><g opacity=".5"><path fill="#fff" fill-rule="evenodd" d="M21.4062 26.2567L10.7119 15.5623L15.8452 11.2845L26.1118 21.5512L21.4062 26.2567Z" clip-rule="evenodd"/><path fill="url(#paint0_linear)" fill-rule="evenodd" d="M21.4062 26.2567L10.7119 15.5623L15.8452 11.2845L26.1118 21.5512L21.4062 26.2567Z" clip-rule="evenodd"/></g><circle cx="13" cy="13" r="4" fill="#164D97"/><circle cx="13" cy="13" r="4" fill="url(#paint1_linear)"/><circle cx="13" cy="25" r="4" fill="#fff"/><circle cx="25" cy="13" r="4" fill="#fff"/><circle cx="25" cy="25" r="4" fill="#164D97"/><circle cx="25" cy="25" r="4" fill="url(#paint2_linear)"/><circle cx="25" cy="25" r="4" fill="url(#paint3_linear)"/><defs><linearGradient id="paint0_linear" x1="15.771" x2="12.094" y1="12.827" y2="16.787" gradientUnits="userSpaceOnUse"><stop stop-color="#B6D3FF"/><stop offset="1" stop-color="#4C92FC" stop-opacity=".29"/></linearGradient><linearGradient id="paint1_linear" x1="15.5" x2="15.5" y1="17" y2="9" gradientUnits="userSpaceOnUse"><stop stop-color="#74DEF6"/><stop offset="1" stop-color="#4C92FC" stop-opacity=".29"/></linearGradient><linearGradient id="paint2_linear" x1="21" x2="21" y1="21" y2="29.421" gradientUnits="userSpaceOnUse"><stop stop-color="#74DEF6"/><stop offset="1" stop-color="#4C92FC" stop-opacity=".29"/></linearGradient><linearGradient id="paint3_linear" x1="21" x2="21" y1="21" y2="29.421" gradientUnits="userSpaceOnUse"><stop stop-color="#74DEF6"/><stop offset="1" stop-color="#4C92FC" stop-opacity=".29"/></linearGradient></defs></svg>