<svg width="38" height="38" viewBox="0 0 38 38" fill="none" xmlns="http://www.w3.org/2000/svg">
<circle cx="19" cy="19" r="19" fill="#164D97"/>
<rect x="9" y="9" width="9" height="9" rx="2" fill="white"/>
<path opacity="0.8" d="M26.7659 17.4286C27.7843 17.8149 28.9597 17.2918 28.9966 16.2031C29.0166 15.6114 28.9491 15.0164 28.793 14.4377C28.4644 13.219 27.7597 12.1349 26.7793 11.3398C25.7988 10.5447 24.5926 10.0791 23.3323 10.0092C22.7338 9.97602 22.1377 10.0328 21.5629 10.1747C20.5053 10.4355 20.2362 11.6936 20.8245 12.6103L21.1948 13.1873C21.5786 13.7853 22.4043 13.9083 23.1138 13.9477C23.5456 13.9716 23.9588 14.1311 24.2947 14.4035C24.6306 14.6759 24.872 15.0473 24.9846 15.4648C25.1696 16.1509 25.4605 16.9334 26.1249 17.1854L26.7659 17.4286Z" fill="url(#paint0_linear)"/>
<path opacity="0.8" d="M12.2341 20.5714C11.2157 20.1851 10.0403 20.7082 10.0034 21.7969C9.98339 22.3886 10.0509 22.9836 10.207 23.5623C10.5356 24.781 11.2403 25.8651 12.2207 26.6602C13.2012 27.4553 14.4074 27.9209 15.6677 27.9908C16.2662 28.024 16.8623 27.9672 17.4371 27.8253C18.4947 27.5645 18.7638 26.3064 18.1755 25.3897L17.8052 24.8127C17.4214 24.2147 16.5957 24.0917 15.8862 24.0523C15.4544 24.0284 15.0412 23.8689 14.7053 23.5965C14.3694 23.3241 14.128 22.9527 14.0154 22.5352C13.8304 21.8491 13.5395 21.0666 12.8751 20.8146L12.2341 20.5714Z" fill="url(#paint1_linear)"/>
<path d="M24.634 20.5C25.0189 19.8333 25.9811 19.8333 26.366 20.5L30.2631 27.25C30.648 27.9167 30.1669 28.75 29.3971 28.75H21.6029C20.8331 28.75 20.352 27.9167 20.7369 27.25L24.634 20.5Z" fill="white"/>
<defs>
<linearGradient id="paint0_linear" x1="17" y1="10" x2="17" y2="34" gradientUnits="userSpaceOnUse">
<stop stop-color="#67D1EC"/>
<stop offset="1" stop-color="#468AE6"/>
</linearGradient>
<linearGradient id="paint1_linear" x1="22" y1="28" x2="22" y2="4" gradientUnits="userSpaceOnUse">
<stop stop-color="#67D1EC"/>
<stop offset="1" stop-color="#468AE6"/>
</linearGradient>
</defs>
</svg>
