<svg width="38" height="38" viewBox="0 0 38 38" fill="none" xmlns="http://www.w3.org/2000/svg">
<circle cx="19" cy="19" r="19" fill="#164D97"/>
<ellipse cx="25.5" cy="21" rx="6.5" ry="7" fill="url(#paint0_linear)"/>
<path d="M27 27.5C27 26.2524 26.7672 25.0171 26.3149 23.8645C25.8626 22.7119 25.1997 21.6646 24.364 20.7825C23.5282 19.9003 22.5361 19.2006 21.4442 18.7231C20.3522 18.2457 19.1819 18 18 18C16.8181 18 15.6478 18.2457 14.5558 18.7231C13.4639 19.2006 12.4718 19.9003 11.636 20.7825C10.8003 21.6646 10.1374 22.7119 9.68508 23.8645C9.23279 25.0171 9 26.2524 9 27.5H11.7365C11.7365 26.6318 11.8985 25.772 12.2133 24.9699C12.5281 24.1678 12.9894 23.4389 13.571 22.825C14.1527 22.2111 14.8431 21.7241 15.6031 21.3918C16.363 21.0596 17.1775 20.8885 18 20.8885C18.8225 20.8885 19.637 21.0596 20.3969 21.3918C21.1569 21.7241 21.8473 22.2111 22.429 22.825C23.0106 23.4389 23.4719 24.1678 23.7867 24.9699C24.1015 25.772 24.2635 26.6318 24.2635 27.5H27Z" fill="white"/>
<circle cx="18" cy="12" r="4" fill="white"/>
<defs>
<linearGradient id="paint0_linear" x1="19" y1="14" x2="19" y2="42" gradientUnits="userSpaceOnUse">
<stop stop-color="#67D1EC"/>
<stop offset="1" stop-color="#468AE6"/>
</linearGradient>
</defs>
</svg>
