<?xml version="1.0" standalone="no"?><!DOCTYPE svg PUBLIC "-//W3C//DTD SVG 1.1//EN" "http://www.w3.org/Graphics/SVG/1.1/DTD/svg11.dtd"><svg t="1530866029567" class="icon" style="" viewBox="0 0 1024 1024" version="1.1" xmlns="http://www.w3.org/2000/svg" p-id="2337" xmlns:xlink="http://www.w3.org/1999/xlink" width="200" height="200"><defs><style type="text/css"></style></defs><path d="M119.69536 200.18176v645.29408h383.74912l222.3104 137.03168-0.12288-137.03168h0.07168v-60.35968h-60.29824v89.27744l-143.86176-89.27744H180.0448V257.00864h663.9104v528.10752h-60.34944v60.35968h120.69888V200.18176z" fill="#ffffff" p-id="2338"></path><path d="M639.77472 459.59168c0-70.56896-57.20064-127.78496-127.77472-127.78496-70.56896 0-127.77984 57.216-127.77984 127.78496h51.8656c0.15872-42.112 34.44224-76.1088 76.53888-75.93984 42.112 0.16896 76.11392 34.44224 75.94496 76.54912-0.16384 40.11008-31.37024 73.23648-71.39328 75.78624h-30.69952v107.38176h51.22048v-58.56768c59.42272-12.23168 102.07744-64.53248 102.07744-125.2096zM486.50752 676.33152h51.13856v48.78336h-51.13856z" fill="#ffffff" p-id="2339"></path></svg>