<?xml version="1.0" standalone="no"?><!DOCTYPE svg PUBLIC "-//W3C//DTD SVG 1.1//EN" "http://www.w3.org/Graphics/SVG/1.1/DTD/svg11.dtd"><svg t="1539769553335" class="icon" style="" viewBox="0 0 1024 1024" version="1.1" xmlns="http://www.w3.org/2000/svg" p-id="4089" xmlns:xlink="http://www.w3.org/1999/xlink" width="15" height="15"><defs><style type="text/css"></style></defs><path d="M512 640c4.096 0 7.168 0 7.168-4.096l162.816-220.16v-7.168c0-3.072-4.096-4.096-4.096-4.096H572.416V184.32c0-4.096 0-7.168-4.096-11.264s-4.096-4.096-7.168-4.096h-98.304c-4.096 0-7.168 0-7.168 4.096-4.096 0-4.096 4.096-4.096 11.264v224.256H345.088s-4.096 0-4.096 4.096v7.168l162.816 216.064c4.096 4.096 4.096 4.096 8.192 4.096z" p-id="4090" fill="#707070"></path><path d="M902.144 638.976l-124.928-87.04h-79.872l133.12 106.496-144.384-4.096c-4.096 0-11.264 4.096-11.264 7.168l-41.984 98.304H394.24l-41.984-98.304c-4.096-4.096-7.168-7.168-11.264-7.168h-143.36l133.12-106.496h-79.872l-129.024 91.136c-19.456 11.264-30.72 37.888-26.624 60.416l26.624 129.024c4.096 22.528 30.72 37.888 53.248 37.888h678.912c22.528 0 45.056-19.456 53.248-37.888l22.528-129.024c3.072-22.528-8.192-49.152-27.648-60.416z" p-id="4091" fill="#707070"></path></svg>