<svg width="14" height="13" viewBox="0 0 14 13" fill="none" xmlns="http://www.w3.org/2000/svg">
<path d="M9.40002 6.50039V5.30039C9.40002 4.63765 9.93728 4.10039 10.6 4.10039C11.2628 4.10039 11.8 4.63765 11.8 5.30039C11.8 5.96313 11.2628 6.50039 10.6 6.50039H9.40002ZM9.40002 6.50039H7.00002M9.40002 6.50039V2.10039C9.40002 1.43765 8.86277 0.900391 8.20002 0.900391C7.53728 0.900391 7.00002 1.43765 7.00002 2.10039V6.50039M7.00002 6.50039V4.10039M7.00002 6.50039H2.60002C1.93728 6.50039 1.40002 5.96313 1.40002 5.30039C1.40002 4.63765 1.93728 4.10039 2.60002 4.10039H7.00002M7.00002 6.50039H11.4C12.0628 6.50039 12.6 7.03765 12.6 7.70039C12.6 8.36313 12.0628 8.90039 11.4 8.90039H7.00002M7.00002 6.50039V8.90039M7.00002 6.50039H4.60002M7.00002 6.50039V10.9004C7.00002 11.5631 6.46277 12.1004 5.80002 12.1004C5.13728 12.1004 4.60002 11.5631 4.60002 10.9004V6.50039M7.00002 4.10039V2.90039C7.00002 2.23765 6.46277 1.70039 5.80002 1.70039C5.13728 1.70039 4.60002 2.23765 4.60002 2.90039C4.60002 3.56313 5.13728 4.10039 5.80002 4.10039H7.00002ZM7.00002 8.90039H8.20002C8.86277 8.90039 9.40002 9.43765 9.40002 10.1004C9.40002 10.7631 8.86277 11.3004 8.20002 11.3004C7.53728 11.3004 7.00002 10.7631 7.00002 10.1004V8.90039ZM4.60002 6.50039V7.70039C4.60002 8.36313 4.06277 8.90039 3.40002 8.90039C2.73728 8.90039 2.20002 8.36313 2.20002 7.70039C2.20002 7.03765 2.73728 6.50039 3.40002 6.50039H4.60002Z" stroke="#659CDC"/>
</svg>
